<svg xmlns="http://www.w3.org/2000/svg" width="1216" height="610" viewBox="0 0 1216 610">
  <rect width="1216" height="610" fill="#0d1117"/>
  <rect x="48" y="48" width="28" height="28" rx="3" fill="#7A3A1E"/><rect x="51" y="51" width="22" height="22" rx="2" fill="#C97B5A"/><rect x="53" y="53" width="18" height="18" rx="1" fill="none" stroke="#E08B68" stroke-width="1.5"/><rect x="81" y="48" width="28" height="28" rx="3" fill="#7A3A1E"/><rect x="84" y="51" width="22" height="22" rx="2" fill="#C97B5A"/><rect x="86" y="53" width="18" height="18" rx="1" fill="none" stroke="#E08B68" stroke-width="1.5"/><rect x="114" y="48" width="28" height="28" rx="3" fill="#7A3A1E"/><rect x="117" y="51" width="22" height="22" rx="2" fill="#C97B5A"/><rect x="119" y="53" width="18" height="18" rx="1" fill="none" stroke="#E08B68" stroke-width="1.5"/><rect x="147" y="48" width="28" height="28" rx="3" fill="#7A3A1E"/><rect x="150" y="51" width="22" height="22" rx="2" fill="#C97B5A"/><rect x="152" y="53" width="18" height="18" rx="1" fill="none" stroke="#E08B68" stroke-width="1.5"/><rect x="180" y="48" width="28" height="28" rx="3" fill="#7A3A1E"/><rect x="183" y="51" width="22" height="22" rx="2" fill="#C97B5A"/><rect x="185" y="53" width="18" height="18" rx="1" fill="none" stroke="#E08B68" stroke-width="1.5"/><rect x="114" y="81" width="28" height="28" rx="3" fill="#7A3A1E"/><rect x="117" y="84" width="22" height="22" rx="2" fill="#C97B5A"/><rect x="119" y="86" width="18" height="18" rx="1" fill="none" stroke="#E08B68" stroke-width="1.5"/><rect x="114" y="114" width="28" height="28" rx="3" fill="#7A3A1E"/><rect x="117" y="117" width="22" height="22" rx="2" fill="#C97B5A"/><rect x="119" y="119" width="18" height="18" rx="1" fill="none" stroke="#E08B68" stroke-width="1.5"/><rect x="114" y="147" width="28" height="28" rx="3" fill="#7A3A1E"/><rect x="117" y="150" width="22" height="22" rx="2" fill="#C97B5A"/><rect x="119" y="152" width="18" height="18" rx="1" fill="none" stroke="#E08B68" stroke-width="1.5"/><rect x="114" y="180" width="28" height="28" rx="3" fill="#7A3A1E"/><rect x="117" y="183" width="22" height="22" rx="2" fill="#C97B5A"/><rect x="119" y="185" width="18" height="18" rx="1" fill="none" stroke="#E08B68" stroke-width="1.5"/><rect x="114" y="213" width="28" height="28" rx="3" fill="#7A3A1E"/><rect x="117" y="216" width="22" height="22" rx="2" fill="#C97B5A"/><rect x="119" y="218" width="18" height="18" rx="1" fill="none" stroke="#E08B68" stroke-width="1.5"/><rect x="114" y="246" width="28" height="28" rx="3" fill="#7A3A1E"/><rect x="117" y="249" width="22" height="22" rx="2" fill="#C97B5A"/><rect x="119" y="251" width="18" height="18" rx="1" fill="none" stroke="#E08B68" stroke-width="1.5"/><rect x="239" y="48" width="28" height="28" rx="3" fill="#7A3A1E"/><rect x="242" y="51" width="22" height="22" rx="2" fill="#C97B5A"/><rect x="244" y="53" width="18" height="18" rx="1" fill="none" stroke="#E08B68" stroke-width="1.5"/><rect x="272" y="48" width="28" height="28" rx="3" fill="#7A3A1E"/><rect x="275" y="51" width="22" height="22" rx="2" fill="#C97B5A"/><rect x="277" y="53" width="18" height="18" rx="1" fill="none" stroke="#E08B68" stroke-width="1.5"/><rect x="305" y="48" width="28" height="28" rx="3" fill="#7A3A1E"/><rect x="308" y="51" width="22" height="22" rx="2" fill="#C97B5A"/><rect x="310" y="53" width="18" height="18" rx="1" fill="none" stroke="#E08B68" stroke-width="1.5"/><rect x="338" y="48" width="28" height="28" rx="3" fill="#7A3A1E"/><rect x="341" y="51" width="22" height="22" rx="2" fill="#C97B5A"/><rect x="343" y="53" width="18" height="18" rx="1" fill="none" stroke="#E08B68" stroke-width="1.5"/><rect x="371" y="48" width="28" height="28" rx="3" fill="#7A3A1E"/><rect x="374" y="51" width="22" height="22" rx="2" fill="#C97B5A"/><rect x="376" y="53" width="18" height="18" rx="1" fill="none" stroke="#E08B68" stroke-width="1.5"/><rect x="305" y="81" width="28" height="28" rx="3" fill="#7A3A1E"/><rect x="308" y="84" width="22" height="22" rx="2" fill="#C97B5A"/><rect x="310" y="86" width="18" height="18" rx="1" fill="none" stroke="#E08B68" stroke-width="1.5"/><rect x="305" y="114" width="28" height="28" rx="3" fill="#7A3A1E"/><rect x="308" y="117" width="22" height="22" rx="2" fill="#C97B5A"/><rect x="310" y="119" width="18" height="18" rx="1" fill="none" stroke="#E08B68" stroke-width="1.5"/><rect x="305" y="147" width="28" height="28" rx="3" fill="#7A3A1E"/><rect x="308" y="150" width="22" height="22" rx="2" fill="#C97B5A"/><rect x="310" y="152" width="18" height="18" rx="1" fill="none" stroke="#E08B68" stroke-width="1.5"/><rect x="305" y="180" width="28" height="28" rx="3" fill="#7A3A1E"/><rect x="308" y="183" width="22" height="22" rx="2" fill="#C97B5A"/><rect x="310" y="185" width="18" height="18" rx="1" fill="none" stroke="#E08B68" stroke-width="1.5"/><rect x="305" y="213" width="28" height="28" rx="3" fill="#7A3A1E"/><rect x="308" y="216" width="22" height="22" rx="2" fill="#C97B5A"/><rect x="310" y="218" width="18" height="18" rx="1" fill="none" stroke="#E08B68" stroke-width="1.5"/><rect x="239" y="246" width="28" height="28" rx="3" fill="#7A3A1E"/><rect x="242" y="249" width="22" height="22" rx="2" fill="#C97B5A"/><rect x="244" y="251" width="18" height="18" rx="1" fill="none" stroke="#E08B68" stroke-width="1.5"/><rect x="272" y="246" width="28" height="28" rx="3" fill="#7A3A1E"/><rect x="275" y="249" width="22" height="22" rx="2" fill="#C97B5A"/><rect x="277" y="251" width="18" height="18" rx="1" fill="none" stroke="#E08B68" stroke-width="1.5"/><rect x="305" y="246" width="28" height="28" rx="3" fill="#7A3A1E"/><rect x="308" y="249" width="22" height="22" rx="2" fill="#C97B5A"/><rect x="310" y="251" width="18" height="18" rx="1" fill="none" stroke="#E08B68" stroke-width="1.5"/><rect x="338" y="246" width="28" height="28" rx="3" fill="#7A3A1E"/><rect x="341" y="249" width="22" height="22" rx="2" fill="#C97B5A"/><rect x="343" y="251" width="18" height="18" rx="1" fill="none" stroke="#E08B68" stroke-width="1.5"/><rect x="371" y="246" width="28" height="28" rx="3" fill="#7A3A1E"/><rect x="374" y="249" width="22" height="22" rx="2" fill="#C97B5A"/><rect x="376" y="251" width="18" height="18" rx="1" fill="none" stroke="#E08B68" stroke-width="1.5"/><rect x="430" y="48" width="28" height="28" rx="3" fill="#7A3A1E"/><rect x="433" y="51" width="22" height="22" rx="2" fill="#C97B5A"/><rect x="435" y="53" width="18" height="18" rx="1" fill="none" stroke="#E08B68" stroke-width="1.5"/><rect x="562" y="48" width="28" height="28" rx="3" fill="#7A3A1E"/><rect x="565" y="51" width="22" height="22" rx="2" fill="#C97B5A"/><rect x="567" y="53" width="18" height="18" rx="1" fill="none" stroke="#E08B68" stroke-width="1.5"/><rect x="430" y="81" width="28" height="28" rx="3" fill="#7A3A1E"/><rect x="433" y="84" width="22" height="22" rx="2" fill="#C97B5A"/><rect x="435" y="86" width="18" height="18" rx="1" fill="none" stroke="#E08B68" stroke-width="1.5"/><rect x="463" y="81" width="28" height="28" rx="3" fill="#7A3A1E"/><rect x="466" y="84" width="22" height="22" rx="2" fill="#C97B5A"/><rect x="468" y="86" width="18" height="18" rx="1" fill="none" stroke="#E08B68" stroke-width="1.5"/><rect x="529" y="81" width="28" height="28" rx="3" fill="#7A3A1E"/><rect x="532" y="84" width="22" height="22" rx="2" fill="#C97B5A"/><rect x="534" y="86" width="18" height="18" rx="1" fill="none" stroke="#E08B68" stroke-width="1.5"/><rect x="562" y="81" width="28" height="28" rx="3" fill="#7A3A1E"/><rect x="565" y="84" width="22" height="22" rx="2" fill="#C97B5A"/><rect x="567" y="86" width="18" height="18" rx="1" fill="none" stroke="#E08B68" stroke-width="1.5"/><rect x="430" y="114" width="28" height="28" rx="3" fill="#7A3A1E"/><rect x="433" y="117" width="22" height="22" rx="2" fill="#C97B5A"/><rect x="435" y="119" width="18" height="18" rx="1" fill="none" stroke="#E08B68" stroke-width="1.5"/><rect x="496" y="114" width="28" height="28" rx="3" fill="#7A3A1E"/><rect x="499" y="117" width="22" height="22" rx="2" fill="#C97B5A"/><rect x="501" y="119" width="18" height="18" rx="1" fill="none" stroke="#E08B68" stroke-width="1.5"/><rect x="562" y="114" width="28" height="28" rx="3" fill="#7A3A1E"/><rect x="565" y="117" width="22" height="22" rx="2" fill="#C97B5A"/><rect x="567" y="119" width="18" height="18" rx="1" fill="none" stroke="#E08B68" stroke-width="1.5"/><rect x="430" y="147" width="28" height="28" rx="3" fill="#7A3A1E"/><rect x="433" y="150" width="22" height="22" rx="2" fill="#C97B5A"/><rect x="435" y="152" width="18" height="18" rx="1" fill="none" stroke="#E08B68" stroke-width="1.5"/><rect x="562" y="147" width="28" height="28" rx="3" fill="#7A3A1E"/><rect x="565" y="150" width="22" height="22" rx="2" fill="#C97B5A"/><rect x="567" y="152" width="18" height="18" rx="1" fill="none" stroke="#E08B68" stroke-width="1.5"/><rect x="430" y="180" width="28" height="28" rx="3" fill="#7A3A1E"/><rect x="433" y="183" width="22" height="22" rx="2" fill="#C97B5A"/><rect x="435" y="185" width="18" height="18" rx="1" fill="none" stroke="#E08B68" stroke-width="1.5"/><rect x="562" y="180" width="28" height="28" rx="3" fill="#7A3A1E"/><rect x="565" y="183" width="22" height="22" rx="2" fill="#C97B5A"/><rect x="567" y="185" width="18" height="18" rx="1" fill="none" stroke="#E08B68" stroke-width="1.5"/><rect x="430" y="213" width="28" height="28" rx="3" fill="#7A3A1E"/><rect x="433" y="216" width="22" height="22" rx="2" fill="#C97B5A"/><rect x="435" y="218" width="18" height="18" rx="1" fill="none" stroke="#E08B68" stroke-width="1.5"/><rect x="562" y="213" width="28" height="28" rx="3" fill="#7A3A1E"/><rect x="565" y="216" width="22" height="22" rx="2" fill="#C97B5A"/><rect x="567" y="218" width="18" height="18" rx="1" fill="none" stroke="#E08B68" stroke-width="1.5"/><rect x="430" y="246" width="28" height="28" rx="3" fill="#7A3A1E"/><rect x="433" y="249" width="22" height="22" rx="2" fill="#C97B5A"/><rect x="435" y="251" width="18" height="18" rx="1" fill="none" stroke="#E08B68" stroke-width="1.5"/><rect x="562" y="246" width="28" height="28" rx="3" fill="#7A3A1E"/><rect x="565" y="249" width="22" height="22" rx="2" fill="#C97B5A"/><rect x="567" y="251" width="18" height="18" rx="1" fill="none" stroke="#E08B68" stroke-width="1.5"/><rect x="621" y="48" width="28" height="28" rx="3" fill="#7A3A1E"/><rect x="624" y="51" width="22" height="22" rx="2" fill="#C97B5A"/><rect x="626" y="53" width="18" height="18" rx="1" fill="none" stroke="#E08B68" stroke-width="1.5"/><rect x="654" y="48" width="28" height="28" rx="3" fill="#7A3A1E"/><rect x="657" y="51" width="22" height="22" rx="2" fill="#C97B5A"/><rect x="659" y="53" width="18" height="18" rx="1" fill="none" stroke="#E08B68" stroke-width="1.5"/><rect x="687" y="48" width="28" height="28" rx="3" fill="#7A3A1E"/><rect x="690" y="51" width="22" height="22" rx="2" fill="#C97B5A"/><rect x="692" y="53" width="18" height="18" rx="1" fill="none" stroke="#E08B68" stroke-width="1.5"/><rect x="720" y="48" width="28" height="28" rx="3" fill="#7A3A1E"/><rect x="723" y="51" width="22" height="22" rx="2" fill="#C97B5A"/><rect x="725" y="53" width="18" height="18" rx="1" fill="none" stroke="#E08B68" stroke-width="1.5"/><rect x="753" y="48" width="28" height="28" rx="3" fill="#7A3A1E"/><rect x="756" y="51" width="22" height="22" rx="2" fill="#C97B5A"/><rect x="758" y="53" width="18" height="18" rx="1" fill="none" stroke="#E08B68" stroke-width="1.5"/><rect x="621" y="81" width="28" height="28" rx="3" fill="#7A3A1E"/><rect x="624" y="84" width="22" height="22" rx="2" fill="#C97B5A"/><rect x="626" y="86" width="18" height="18" rx="1" fill="none" stroke="#E08B68" stroke-width="1.5"/><rect x="621" y="114" width="28" height="28" rx="3" fill="#7A3A1E"/><rect x="624" y="117" width="22" height="22" rx="2" fill="#C97B5A"/><rect x="626" y="119" width="18" height="18" rx="1" fill="none" stroke="#E08B68" stroke-width="1.5"/><rect x="621" y="147" width="28" height="28" rx="3" fill="#7A3A1E"/><rect x="624" y="150" width="22" height="22" rx="2" fill="#C97B5A"/><rect x="626" y="152" width="18" height="18" rx="1" fill="none" stroke="#E08B68" stroke-width="1.5"/><rect x="654" y="147" width="28" height="28" rx="3" fill="#7A3A1E"/><rect x="657" y="150" width="22" height="22" rx="2" fill="#C97B5A"/><rect x="659" y="152" width="18" height="18" rx="1" fill="none" stroke="#E08B68" stroke-width="1.5"/><rect x="687" y="147" width="28" height="28" rx="3" fill="#7A3A1E"/><rect x="690" y="150" width="22" height="22" rx="2" fill="#C97B5A"/><rect x="692" y="152" width="18" height="18" rx="1" fill="none" stroke="#E08B68" stroke-width="1.5"/><rect x="720" y="147" width="28" height="28" rx="3" fill="#7A3A1E"/><rect x="723" y="150" width="22" height="22" rx="2" fill="#C97B5A"/><rect x="725" y="152" width="18" height="18" rx="1" fill="none" stroke="#E08B68" stroke-width="1.5"/><rect x="621" y="180" width="28" height="28" rx="3" fill="#7A3A1E"/><rect x="624" y="183" width="22" height="22" rx="2" fill="#C97B5A"/><rect x="626" y="185" width="18" height="18" rx="1" fill="none" stroke="#E08B68" stroke-width="1.5"/><rect x="621" y="213" width="28" height="28" rx="3" fill="#7A3A1E"/><rect x="624" y="216" width="22" height="22" rx="2" fill="#C97B5A"/><rect x="626" y="218" width="18" height="18" rx="1" fill="none" stroke="#E08B68" stroke-width="1.5"/><rect x="621" y="246" width="28" height="28" rx="3" fill="#7A3A1E"/><rect x="624" y="249" width="22" height="22" rx="2" fill="#C97B5A"/><rect x="626" y="251" width="18" height="18" rx="1" fill="none" stroke="#E08B68" stroke-width="1.5"/><rect x="654" y="246" width="28" height="28" rx="3" fill="#7A3A1E"/><rect x="657" y="249" width="22" height="22" rx="2" fill="#C97B5A"/><rect x="659" y="251" width="18" height="18" rx="1" fill="none" stroke="#E08B68" stroke-width="1.5"/><rect x="687" y="246" width="28" height="28" rx="3" fill="#7A3A1E"/><rect x="690" y="249" width="22" height="22" rx="2" fill="#C97B5A"/><rect x="692" y="251" width="18" height="18" rx="1" fill="none" stroke="#E08B68" stroke-width="1.5"/><rect x="720" y="246" width="28" height="28" rx="3" fill="#7A3A1E"/><rect x="723" y="249" width="22" height="22" rx="2" fill="#C97B5A"/><rect x="725" y="251" width="18" height="18" rx="1" fill="none" stroke="#E08B68" stroke-width="1.5"/><rect x="753" y="246" width="28" height="28" rx="3" fill="#7A3A1E"/><rect x="756" y="249" width="22" height="22" rx="2" fill="#C97B5A"/><rect x="758" y="251" width="18" height="18" rx="1" fill="none" stroke="#E08B68" stroke-width="1.5"/><rect x="812" y="48" width="28" height="28" rx="3" fill="#7A3A1E"/><rect x="815" y="51" width="22" height="22" rx="2" fill="#C97B5A"/><rect x="817" y="53" width="18" height="18" rx="1" fill="none" stroke="#E08B68" stroke-width="1.5"/><rect x="812" y="81" width="28" height="28" rx="3" fill="#7A3A1E"/><rect x="815" y="84" width="22" height="22" rx="2" fill="#C97B5A"/><rect x="817" y="86" width="18" height="18" rx="1" fill="none" stroke="#E08B68" stroke-width="1.5"/><rect x="812" y="114" width="28" height="28" rx="3" fill="#7A3A1E"/><rect x="815" y="117" width="22" height="22" rx="2" fill="#C97B5A"/><rect x="817" y="119" width="18" height="18" rx="1" fill="none" stroke="#E08B68" stroke-width="1.5"/><rect x="812" y="147" width="28" height="28" rx="3" fill="#7A3A1E"/><rect x="815" y="150" width="22" height="22" rx="2" fill="#C97B5A"/><rect x="817" y="152" width="18" height="18" rx="1" fill="none" stroke="#E08B68" stroke-width="1.5"/><rect x="812" y="180" width="28" height="28" rx="3" fill="#7A3A1E"/><rect x="815" y="183" width="22" height="22" rx="2" fill="#C97B5A"/><rect x="817" y="185" width="18" height="18" rx="1" fill="none" stroke="#E08B68" stroke-width="1.5"/><rect x="812" y="213" width="28" height="28" rx="3" fill="#7A3A1E"/><rect x="815" y="216" width="22" height="22" rx="2" fill="#C97B5A"/><rect x="817" y="218" width="18" height="18" rx="1" fill="none" stroke="#E08B68" stroke-width="1.5"/><rect x="812" y="246" width="28" height="28" rx="3" fill="#7A3A1E"/><rect x="815" y="249" width="22" height="22" rx="2" fill="#C97B5A"/><rect x="817" y="251" width="18" height="18" rx="1" fill="none" stroke="#E08B68" stroke-width="1.5"/><rect x="845" y="246" width="28" height="28" rx="3" fill="#7A3A1E"/><rect x="848" y="249" width="22" height="22" rx="2" fill="#C97B5A"/><rect x="850" y="251" width="18" height="18" rx="1" fill="none" stroke="#E08B68" stroke-width="1.5"/><rect x="878" y="246" width="28" height="28" rx="3" fill="#7A3A1E"/><rect x="881" y="249" width="22" height="22" rx="2" fill="#C97B5A"/><rect x="883" y="251" width="18" height="18" rx="1" fill="none" stroke="#E08B68" stroke-width="1.5"/><rect x="911" y="246" width="28" height="28" rx="3" fill="#7A3A1E"/><rect x="914" y="249" width="22" height="22" rx="2" fill="#C97B5A"/><rect x="916" y="251" width="18" height="18" rx="1" fill="none" stroke="#E08B68" stroke-width="1.5"/><rect x="944" y="246" width="28" height="28" rx="3" fill="#7A3A1E"/><rect x="947" y="249" width="22" height="22" rx="2" fill="#C97B5A"/><rect x="949" y="251" width="18" height="18" rx="1" fill="none" stroke="#E08B68" stroke-width="1.5"/><rect x="1003" y="48" width="28" height="28" rx="3" fill="#7A3A1E"/><rect x="1006" y="51" width="22" height="22" rx="2" fill="#C97B5A"/><rect x="1008" y="53" width="18" height="18" rx="1" fill="none" stroke="#E08B68" stroke-width="1.5"/><rect x="1135" y="48" width="28" height="28" rx="3" fill="#7A3A1E"/><rect x="1138" y="51" width="22" height="22" rx="2" fill="#C97B5A"/><rect x="1140" y="53" width="18" height="18" rx="1" fill="none" stroke="#E08B68" stroke-width="1.5"/><rect x="1003" y="81" width="28" height="28" rx="3" fill="#7A3A1E"/><rect x="1006" y="84" width="22" height="22" rx="2" fill="#C97B5A"/><rect x="1008" y="86" width="18" height="18" rx="1" fill="none" stroke="#E08B68" stroke-width="1.5"/><rect x="1036" y="81" width="28" height="28" rx="3" fill="#7A3A1E"/><rect x="1039" y="84" width="22" height="22" rx="2" fill="#C97B5A"/><rect x="1041" y="86" width="18" height="18" rx="1" fill="none" stroke="#E08B68" stroke-width="1.5"/><rect x="1135" y="81" width="28" height="28" rx="3" fill="#7A3A1E"/><rect x="1138" y="84" width="22" height="22" rx="2" fill="#C97B5A"/><rect x="1140" y="86" width="18" height="18" rx="1" fill="none" stroke="#E08B68" stroke-width="1.5"/><rect x="1003" y="114" width="28" height="28" rx="3" fill="#7A3A1E"/><rect x="1006" y="117" width="22" height="22" rx="2" fill="#C97B5A"/><rect x="1008" y="119" width="18" height="18" rx="1" fill="none" stroke="#E08B68" stroke-width="1.5"/><rect x="1069" y="114" width="28" height="28" rx="3" fill="#7A3A1E"/><rect x="1072" y="117" width="22" height="22" rx="2" fill="#C97B5A"/><rect x="1074" y="119" width="18" height="18" rx="1" fill="none" stroke="#E08B68" stroke-width="1.5"/><rect x="1135" y="114" width="28" height="28" rx="3" fill="#7A3A1E"/><rect x="1138" y="117" width="22" height="22" rx="2" fill="#C97B5A"/><rect x="1140" y="119" width="18" height="18" rx="1" fill="none" stroke="#E08B68" stroke-width="1.5"/><rect x="1003" y="147" width="28" height="28" rx="3" fill="#7A3A1E"/><rect x="1006" y="150" width="22" height="22" rx="2" fill="#C97B5A"/><rect x="1008" y="152" width="18" height="18" rx="1" fill="none" stroke="#E08B68" stroke-width="1.5"/><rect x="1102" y="147" width="28" height="28" rx="3" fill="#7A3A1E"/><rect x="1105" y="150" width="22" height="22" rx="2" fill="#C97B5A"/><rect x="1107" y="152" width="18" height="18" rx="1" fill="none" stroke="#E08B68" stroke-width="1.5"/><rect x="1135" y="147" width="28" height="28" rx="3" fill="#7A3A1E"/><rect x="1138" y="150" width="22" height="22" rx="2" fill="#C97B5A"/><rect x="1140" y="152" width="18" height="18" rx="1" fill="none" stroke="#E08B68" stroke-width="1.5"/><rect x="1003" y="180" width="28" height="28" rx="3" fill="#7A3A1E"/><rect x="1006" y="183" width="22" height="22" rx="2" fill="#C97B5A"/><rect x="1008" y="185" width="18" height="18" rx="1" fill="none" stroke="#E08B68" stroke-width="1.5"/><rect x="1135" y="180" width="28" height="28" rx="3" fill="#7A3A1E"/><rect x="1138" y="183" width="22" height="22" rx="2" fill="#C97B5A"/><rect x="1140" y="185" width="18" height="18" rx="1" fill="none" stroke="#E08B68" stroke-width="1.5"/><rect x="1003" y="213" width="28" height="28" rx="3" fill="#7A3A1E"/><rect x="1006" y="216" width="22" height="22" rx="2" fill="#C97B5A"/><rect x="1008" y="218" width="18" height="18" rx="1" fill="none" stroke="#E08B68" stroke-width="1.5"/><rect x="1135" y="213" width="28" height="28" rx="3" fill="#7A3A1E"/><rect x="1138" y="216" width="22" height="22" rx="2" fill="#C97B5A"/><rect x="1140" y="218" width="18" height="18" rx="1" fill="none" stroke="#E08B68" stroke-width="1.5"/><rect x="1003" y="246" width="28" height="28" rx="3" fill="#7A3A1E"/><rect x="1006" y="249" width="22" height="22" rx="2" fill="#C97B5A"/><rect x="1008" y="251" width="18" height="18" rx="1" fill="none" stroke="#E08B68" stroke-width="1.5"/><rect x="1135" y="246" width="28" height="28" rx="3" fill="#7A3A1E"/><rect x="1138" y="249" width="22" height="22" rx="2" fill="#C97B5A"/><rect x="1140" y="251" width="18" height="18" rx="1" fill="none" stroke="#E08B68" stroke-width="1.5"/><rect x="176" y="331" width="28" height="28" rx="3" fill="#7A3A1E"/><rect x="179" y="334" width="22" height="22" rx="2" fill="#C97B5A"/><rect x="181" y="336" width="18" height="18" rx="1" fill="none" stroke="#E08B68" stroke-width="1.5"/><rect x="209" y="331" width="28" height="28" rx="3" fill="#7A3A1E"/><rect x="212" y="334" width="22" height="22" rx="2" fill="#C97B5A"/><rect x="214" y="336" width="18" height="18" rx="1" fill="none" stroke="#E08B68" stroke-width="1.5"/><rect x="242" y="331" width="28" height="28" rx="3" fill="#7A3A1E"/><rect x="245" y="334" width="22" height="22" rx="2" fill="#C97B5A"/><rect x="247" y="336" width="18" height="18" rx="1" fill="none" stroke="#E08B68" stroke-width="1.5"/><rect x="275" y="331" width="28" height="28" rx="3" fill="#7A3A1E"/><rect x="278" y="334" width="22" height="22" rx="2" fill="#C97B5A"/><rect x="280" y="336" width="18" height="18" rx="1" fill="none" stroke="#E08B68" stroke-width="1.5"/><rect x="143" y="364" width="28" height="28" rx="3" fill="#7A3A1E"/><rect x="146" y="367" width="22" height="22" rx="2" fill="#C97B5A"/><rect x="148" y="369" width="18" height="18" rx="1" fill="none" stroke="#E08B68" stroke-width="1.5"/><rect x="143" y="397" width="28" height="28" rx="3" fill="#7A3A1E"/><rect x="146" y="400" width="22" height="22" rx="2" fill="#C97B5A"/><rect x="148" y="402" width="18" height="18" rx="1" fill="none" stroke="#E08B68" stroke-width="1.5"/><rect x="176" y="430" width="28" height="28" rx="3" fill="#7A3A1E"/><rect x="179" y="433" width="22" height="22" rx="2" fill="#C97B5A"/><rect x="181" y="435" width="18" height="18" rx="1" fill="none" stroke="#E08B68" stroke-width="1.5"/><rect x="209" y="430" width="28" height="28" rx="3" fill="#7A3A1E"/><rect x="212" y="433" width="22" height="22" rx="2" fill="#C97B5A"/><rect x="214" y="435" width="18" height="18" rx="1" fill="none" stroke="#E08B68" stroke-width="1.5"/><rect x="242" y="430" width="28" height="28" rx="3" fill="#7A3A1E"/><rect x="245" y="433" width="22" height="22" rx="2" fill="#C97B5A"/><rect x="247" y="435" width="18" height="18" rx="1" fill="none" stroke="#E08B68" stroke-width="1.5"/><rect x="275" y="463" width="28" height="28" rx="3" fill="#7A3A1E"/><rect x="278" y="466" width="22" height="22" rx="2" fill="#C97B5A"/><rect x="280" y="468" width="18" height="18" rx="1" fill="none" stroke="#E08B68" stroke-width="1.5"/><rect x="275" y="496" width="28" height="28" rx="3" fill="#7A3A1E"/><rect x="278" y="499" width="22" height="22" rx="2" fill="#C97B5A"/><rect x="280" y="501" width="18" height="18" rx="1" fill="none" stroke="#E08B68" stroke-width="1.5"/><rect x="143" y="529" width="28" height="28" rx="3" fill="#7A3A1E"/><rect x="146" y="532" width="22" height="22" rx="2" fill="#C97B5A"/><rect x="148" y="534" width="18" height="18" rx="1" fill="none" stroke="#E08B68" stroke-width="1.5"/><rect x="176" y="529" width="28" height="28" rx="3" fill="#7A3A1E"/><rect x="179" y="532" width="22" height="22" rx="2" fill="#C97B5A"/><rect x="181" y="534" width="18" height="18" rx="1" fill="none" stroke="#E08B68" stroke-width="1.5"/><rect x="209" y="529" width="28" height="28" rx="3" fill="#7A3A1E"/><rect x="212" y="532" width="22" height="22" rx="2" fill="#C97B5A"/><rect x="214" y="534" width="18" height="18" rx="1" fill="none" stroke="#E08B68" stroke-width="1.5"/><rect x="242" y="529" width="28" height="28" rx="3" fill="#7A3A1E"/><rect x="245" y="532" width="22" height="22" rx="2" fill="#C97B5A"/><rect x="247" y="534" width="18" height="18" rx="1" fill="none" stroke="#E08B68" stroke-width="1.5"/><rect x="334" y="331" width="28" height="28" rx="3" fill="#7A3A1E"/><rect x="337" y="334" width="22" height="22" rx="2" fill="#C97B5A"/><rect x="339" y="336" width="18" height="18" rx="1" fill="none" stroke="#E08B68" stroke-width="1.5"/><rect x="433" y="331" width="28" height="28" rx="3" fill="#7A3A1E"/><rect x="436" y="334" width="22" height="22" rx="2" fill="#C97B5A"/><rect x="438" y="336" width="18" height="18" rx="1" fill="none" stroke="#E08B68" stroke-width="1.5"/><rect x="334" y="364" width="28" height="28" rx="3" fill="#7A3A1E"/><rect x="337" y="367" width="22" height="22" rx="2" fill="#C97B5A"/><rect x="339" y="369" width="18" height="18" rx="1" fill="none" stroke="#E08B68" stroke-width="1.5"/><rect x="400" y="364" width="28" height="28" rx="3" fill="#7A3A1E"/><rect x="403" y="367" width="22" height="22" rx="2" fill="#C97B5A"/><rect x="405" y="369" width="18" height="18" rx="1" fill="none" stroke="#E08B68" stroke-width="1.5"/><rect x="334" y="397" width="28" height="28" rx="3" fill="#7A3A1E"/><rect x="337" y="400" width="22" height="22" rx="2" fill="#C97B5A"/><rect x="339" y="402" width="18" height="18" rx="1" fill="none" stroke="#E08B68" stroke-width="1.5"/><rect x="367" y="397" width="28" height="28" rx="3" fill="#7A3A1E"/><rect x="370" y="400" width="22" height="22" rx="2" fill="#C97B5A"/><rect x="372" y="402" width="18" height="18" rx="1" fill="none" stroke="#E08B68" stroke-width="1.5"/><rect x="334" y="430" width="28" height="28" rx="3" fill="#7A3A1E"/><rect x="337" y="433" width="22" height="22" rx="2" fill="#C97B5A"/><rect x="339" y="435" width="18" height="18" rx="1" fill="none" stroke="#E08B68" stroke-width="1.5"/><rect x="367" y="430" width="28" height="28" rx="3" fill="#7A3A1E"/><rect x="370" y="433" width="22" height="22" rx="2" fill="#C97B5A"/><rect x="372" y="435" width="18" height="18" rx="1" fill="none" stroke="#E08B68" stroke-width="1.5"/><rect x="334" y="463" width="28" height="28" rx="3" fill="#7A3A1E"/><rect x="337" y="466" width="22" height="22" rx="2" fill="#C97B5A"/><rect x="339" y="468" width="18" height="18" rx="1" fill="none" stroke="#E08B68" stroke-width="1.5"/><rect x="400" y="463" width="28" height="28" rx="3" fill="#7A3A1E"/><rect x="403" y="466" width="22" height="22" rx="2" fill="#C97B5A"/><rect x="405" y="468" width="18" height="18" rx="1" fill="none" stroke="#E08B68" stroke-width="1.5"/><rect x="334" y="496" width="28" height="28" rx="3" fill="#7A3A1E"/><rect x="337" y="499" width="22" height="22" rx="2" fill="#C97B5A"/><rect x="339" y="501" width="18" height="18" rx="1" fill="none" stroke="#E08B68" stroke-width="1.5"/><rect x="433" y="496" width="28" height="28" rx="3" fill="#7A3A1E"/><rect x="436" y="499" width="22" height="22" rx="2" fill="#C97B5A"/><rect x="438" y="501" width="18" height="18" rx="1" fill="none" stroke="#E08B68" stroke-width="1.5"/><rect x="334" y="529" width="28" height="28" rx="3" fill="#7A3A1E"/><rect x="337" y="532" width="22" height="22" rx="2" fill="#C97B5A"/><rect x="339" y="534" width="18" height="18" rx="1" fill="none" stroke="#E08B68" stroke-width="1.5"/><rect x="466" y="529" width="28" height="28" rx="3" fill="#7A3A1E"/><rect x="469" y="532" width="22" height="22" rx="2" fill="#C97B5A"/><rect x="471" y="534" width="18" height="18" rx="1" fill="none" stroke="#E08B68" stroke-width="1.5"/><rect x="525" y="331" width="28" height="28" rx="3" fill="#7A3A1E"/><rect x="528" y="334" width="22" height="22" rx="2" fill="#C97B5A"/><rect x="530" y="336" width="18" height="18" rx="1" fill="none" stroke="#E08B68" stroke-width="1.5"/><rect x="558" y="331" width="28" height="28" rx="3" fill="#7A3A1E"/><rect x="561" y="334" width="22" height="22" rx="2" fill="#C97B5A"/><rect x="563" y="336" width="18" height="18" rx="1" fill="none" stroke="#E08B68" stroke-width="1.5"/><rect x="591" y="331" width="28" height="28" rx="3" fill="#7A3A1E"/><rect x="594" y="334" width="22" height="22" rx="2" fill="#C97B5A"/><rect x="596" y="336" width="18" height="18" rx="1" fill="none" stroke="#E08B68" stroke-width="1.5"/><rect x="624" y="331" width="28" height="28" rx="3" fill="#7A3A1E"/><rect x="627" y="334" width="22" height="22" rx="2" fill="#C97B5A"/><rect x="629" y="336" width="18" height="18" rx="1" fill="none" stroke="#E08B68" stroke-width="1.5"/><rect x="657" y="331" width="28" height="28" rx="3" fill="#7A3A1E"/><rect x="660" y="334" width="22" height="22" rx="2" fill="#C97B5A"/><rect x="662" y="336" width="18" height="18" rx="1" fill="none" stroke="#E08B68" stroke-width="1.5"/><rect x="591" y="364" width="28" height="28" rx="3" fill="#7A3A1E"/><rect x="594" y="367" width="22" height="22" rx="2" fill="#C97B5A"/><rect x="596" y="369" width="18" height="18" rx="1" fill="none" stroke="#E08B68" stroke-width="1.5"/><rect x="591" y="397" width="28" height="28" rx="3" fill="#7A3A1E"/><rect x="594" y="400" width="22" height="22" rx="2" fill="#C97B5A"/><rect x="596" y="402" width="18" height="18" rx="1" fill="none" stroke="#E08B68" stroke-width="1.5"/><rect x="591" y="430" width="28" height="28" rx="3" fill="#7A3A1E"/><rect x="594" y="433" width="22" height="22" rx="2" fill="#C97B5A"/><rect x="596" y="435" width="18" height="18" rx="1" fill="none" stroke="#E08B68" stroke-width="1.5"/><rect x="591" y="463" width="28" height="28" rx="3" fill="#7A3A1E"/><rect x="594" y="466" width="22" height="22" rx="2" fill="#C97B5A"/><rect x="596" y="468" width="18" height="18" rx="1" fill="none" stroke="#E08B68" stroke-width="1.5"/><rect x="591" y="496" width="28" height="28" rx="3" fill="#7A3A1E"/><rect x="594" y="499" width="22" height="22" rx="2" fill="#C97B5A"/><rect x="596" y="501" width="18" height="18" rx="1" fill="none" stroke="#E08B68" stroke-width="1.5"/><rect x="525" y="529" width="28" height="28" rx="3" fill="#7A3A1E"/><rect x="528" y="532" width="22" height="22" rx="2" fill="#C97B5A"/><rect x="530" y="534" width="18" height="18" rx="1" fill="none" stroke="#E08B68" stroke-width="1.5"/><rect x="558" y="529" width="28" height="28" rx="3" fill="#7A3A1E"/><rect x="561" y="532" width="22" height="22" rx="2" fill="#C97B5A"/><rect x="563" y="534" width="18" height="18" rx="1" fill="none" stroke="#E08B68" stroke-width="1.5"/><rect x="591" y="529" width="28" height="28" rx="3" fill="#7A3A1E"/><rect x="594" y="532" width="22" height="22" rx="2" fill="#C97B5A"/><rect x="596" y="534" width="18" height="18" rx="1" fill="none" stroke="#E08B68" stroke-width="1.5"/><rect x="624" y="529" width="28" height="28" rx="3" fill="#7A3A1E"/><rect x="627" y="532" width="22" height="22" rx="2" fill="#C97B5A"/><rect x="629" y="534" width="18" height="18" rx="1" fill="none" stroke="#E08B68" stroke-width="1.5"/><rect x="657" y="529" width="28" height="28" rx="3" fill="#7A3A1E"/><rect x="660" y="532" width="22" height="22" rx="2" fill="#C97B5A"/><rect x="662" y="534" width="18" height="18" rx="1" fill="none" stroke="#E08B68" stroke-width="1.5"/><rect x="716" y="331" width="28" height="28" rx="3" fill="#7A3A1E"/><rect x="719" y="334" width="22" height="22" rx="2" fill="#C97B5A"/><rect x="721" y="336" width="18" height="18" rx="1" fill="none" stroke="#E08B68" stroke-width="1.5"/><rect x="716" y="364" width="28" height="28" rx="3" fill="#7A3A1E"/><rect x="719" y="367" width="22" height="22" rx="2" fill="#C97B5A"/><rect x="721" y="369" width="18" height="18" rx="1" fill="none" stroke="#E08B68" stroke-width="1.5"/><rect x="716" y="397" width="28" height="28" rx="3" fill="#7A3A1E"/><rect x="719" y="400" width="22" height="22" rx="2" fill="#C97B5A"/><rect x="721" y="402" width="18" height="18" rx="1" fill="none" stroke="#E08B68" stroke-width="1.5"/><rect x="716" y="430" width="28" height="28" rx="3" fill="#7A3A1E"/><rect x="719" y="433" width="22" height="22" rx="2" fill="#C97B5A"/><rect x="721" y="435" width="18" height="18" rx="1" fill="none" stroke="#E08B68" stroke-width="1.5"/><rect x="716" y="463" width="28" height="28" rx="3" fill="#7A3A1E"/><rect x="719" y="466" width="22" height="22" rx="2" fill="#C97B5A"/><rect x="721" y="468" width="18" height="18" rx="1" fill="none" stroke="#E08B68" stroke-width="1.5"/><rect x="716" y="496" width="28" height="28" rx="3" fill="#7A3A1E"/><rect x="719" y="499" width="22" height="22" rx="2" fill="#C97B5A"/><rect x="721" y="501" width="18" height="18" rx="1" fill="none" stroke="#E08B68" stroke-width="1.5"/><rect x="716" y="529" width="28" height="28" rx="3" fill="#7A3A1E"/><rect x="719" y="532" width="22" height="22" rx="2" fill="#C97B5A"/><rect x="721" y="534" width="18" height="18" rx="1" fill="none" stroke="#E08B68" stroke-width="1.5"/><rect x="749" y="529" width="28" height="28" rx="3" fill="#7A3A1E"/><rect x="752" y="532" width="22" height="22" rx="2" fill="#C97B5A"/><rect x="754" y="534" width="18" height="18" rx="1" fill="none" stroke="#E08B68" stroke-width="1.5"/><rect x="782" y="529" width="28" height="28" rx="3" fill="#7A3A1E"/><rect x="785" y="532" width="22" height="22" rx="2" fill="#C97B5A"/><rect x="787" y="534" width="18" height="18" rx="1" fill="none" stroke="#E08B68" stroke-width="1.5"/><rect x="815" y="529" width="28" height="28" rx="3" fill="#7A3A1E"/><rect x="818" y="532" width="22" height="22" rx="2" fill="#C97B5A"/><rect x="820" y="534" width="18" height="18" rx="1" fill="none" stroke="#E08B68" stroke-width="1.5"/><rect x="848" y="529" width="28" height="28" rx="3" fill="#7A3A1E"/><rect x="851" y="532" width="22" height="22" rx="2" fill="#C97B5A"/><rect x="853" y="534" width="18" height="18" rx="1" fill="none" stroke="#E08B68" stroke-width="1.5"/><rect x="907" y="331" width="28" height="28" rx="3" fill="#7A3A1E"/><rect x="910" y="334" width="22" height="22" rx="2" fill="#C97B5A"/><rect x="912" y="336" width="18" height="18" rx="1" fill="none" stroke="#E08B68" stroke-width="1.5"/><rect x="907" y="364" width="28" height="28" rx="3" fill="#7A3A1E"/><rect x="910" y="367" width="22" height="22" rx="2" fill="#C97B5A"/><rect x="912" y="369" width="18" height="18" rx="1" fill="none" stroke="#E08B68" stroke-width="1.5"/><rect x="907" y="397" width="28" height="28" rx="3" fill="#7A3A1E"/><rect x="910" y="400" width="22" height="22" rx="2" fill="#C97B5A"/><rect x="912" y="402" width="18" height="18" rx="1" fill="none" stroke="#E08B68" stroke-width="1.5"/><rect x="907" y="430" width="28" height="28" rx="3" fill="#7A3A1E"/><rect x="910" y="433" width="22" height="22" rx="2" fill="#C97B5A"/><rect x="912" y="435" width="18" height="18" rx="1" fill="none" stroke="#E08B68" stroke-width="1.5"/><rect x="907" y="463" width="28" height="28" rx="3" fill="#7A3A1E"/><rect x="910" y="466" width="22" height="22" rx="2" fill="#C97B5A"/><rect x="912" y="468" width="18" height="18" rx="1" fill="none" stroke="#E08B68" stroke-width="1.5"/><rect x="907" y="496" width="28" height="28" rx="3" fill="#7A3A1E"/><rect x="910" y="499" width="22" height="22" rx="2" fill="#C97B5A"/><rect x="912" y="501" width="18" height="18" rx="1" fill="none" stroke="#E08B68" stroke-width="1.5"/><rect x="907" y="529" width="28" height="28" rx="3" fill="#7A3A1E"/><rect x="910" y="532" width="22" height="22" rx="2" fill="#C97B5A"/><rect x="912" y="534" width="18" height="18" rx="1" fill="none" stroke="#E08B68" stroke-width="1.5"/><rect x="940" y="529" width="28" height="28" rx="3" fill="#7A3A1E"/><rect x="943" y="532" width="22" height="22" rx="2" fill="#C97B5A"/><rect x="945" y="534" width="18" height="18" rx="1" fill="none" stroke="#E08B68" stroke-width="1.5"/><rect x="973" y="529" width="28" height="28" rx="3" fill="#7A3A1E"/><rect x="976" y="532" width="22" height="22" rx="2" fill="#C97B5A"/><rect x="978" y="534" width="18" height="18" rx="1" fill="none" stroke="#E08B68" stroke-width="1.5"/><rect x="1006" y="529" width="28" height="28" rx="3" fill="#7A3A1E"/><rect x="1009" y="532" width="22" height="22" rx="2" fill="#C97B5A"/><rect x="1011" y="534" width="18" height="18" rx="1" fill="none" stroke="#E08B68" stroke-width="1.5"/><rect x="1039" y="529" width="28" height="28" rx="3" fill="#7A3A1E"/><rect x="1042" y="532" width="22" height="22" rx="2" fill="#C97B5A"/><rect x="1044" y="534" width="18" height="18" rx="1" fill="none" stroke="#E08B68" stroke-width="1.5"/>
</svg>