<svg xmlns="http://www.w3.org/2000/svg" width="760" height="619" viewBox="0 0 760 619">
  <rect width="760" height="619" fill="#0d1117"/>
  <rect x="-20" y="30" width="18" height="18" rx="2" fill="#ffffff"/>
  <rect x="3" y="30" width="18" height="18" rx="2" fill="#ffffff"/>
  <rect x="26" y="30" width="18" height="18" rx="2" fill="#ffffff"/>
  <rect x="49" y="30" width="18" height="18" rx="2" fill="#ffffff"/>
  <rect x="72" y="30" width="18" height="18" rx="2" fill="#ffffff"/>
  <rect x="26" y="53" width="18" height="18" rx="2" fill="#ffffff"/>
  <rect x="26" y="76" width="18" height="18" rx="2" fill="#ffffff"/>
  <rect x="26" y="99" width="18" height="18" rx="2" fill="#ffffff"/>
  <rect x="26" y="122" width="18" height="18" rx="2" fill="#ffffff"/>
  <rect x="26" y="145" width="18" height="18" rx="2" fill="#ffffff"/>
  <rect x="26" y="168" width="18" height="18" rx="2" fill="#ffffff"/>
  <rect x="117" y="30" width="18" height="18" rx="2" fill="#ffffff"/>
  <rect x="140" y="30" width="18" height="18" rx="2" fill="#ffffff"/>
  <rect x="163" y="30" width="18" height="18" rx="2" fill="#ffffff"/>
  <rect x="186" y="30" width="18" height="18" rx="2" fill="#ffffff"/>
  <rect x="209" y="30" width="18" height="18" rx="2" fill="#ffffff"/>
  <rect x="163" y="53" width="18" height="18" rx="2" fill="#ffffff"/>
  <rect x="163" y="76" width="18" height="18" rx="2" fill="#ffffff"/>
  <rect x="163" y="99" width="18" height="18" rx="2" fill="#ffffff"/>
  <rect x="163" y="122" width="18" height="18" rx="2" fill="#ffffff"/>
  <rect x="163" y="145" width="18" height="18" rx="2" fill="#ffffff"/>
  <rect x="117" y="168" width="18" height="18" rx="2" fill="#ffffff"/>
  <rect x="140" y="168" width="18" height="18" rx="2" fill="#ffffff"/>
  <rect x="163" y="168" width="18" height="18" rx="2" fill="#ffffff"/>
  <rect x="186" y="168" width="18" height="18" rx="2" fill="#ffffff"/>
  <rect x="209" y="168" width="18" height="18" rx="2" fill="#ffffff"/>
  <rect x="254" y="30" width="18" height="18" rx="2" fill="#ffffff"/>
  <rect x="346" y="30" width="18" height="18" rx="2" fill="#ffffff"/>
  <rect x="254" y="53" width="18" height="18" rx="2" fill="#ffffff"/>
  <rect x="277" y="53" width="18" height="18" rx="2" fill="#ffffff"/>
  <rect x="323" y="53" width="18" height="18" rx="2" fill="#ffffff"/>
  <rect x="346" y="53" width="18" height="18" rx="2" fill="#ffffff"/>
  <rect x="254" y="76" width="18" height="18" rx="2" fill="#ffffff"/>
  <rect x="300" y="76" width="18" height="18" rx="2" fill="#ffffff"/>
  <rect x="346" y="76" width="18" height="18" rx="2" fill="#ffffff"/>
  <rect x="254" y="99" width="18" height="18" rx="2" fill="#ffffff"/>
  <rect x="346" y="99" width="18" height="18" rx="2" fill="#ffffff"/>
  <rect x="254" y="122" width="18" height="18" rx="2" fill="#ffffff"/>
  <rect x="346" y="122" width="18" height="18" rx="2" fill="#ffffff"/>
  <rect x="254" y="145" width="18" height="18" rx="2" fill="#ffffff"/>
  <rect x="346" y="145" width="18" height="18" rx="2" fill="#ffffff"/>
  <rect x="254" y="168" width="18" height="18" rx="2" fill="#ffffff"/>
  <rect x="346" y="168" width="18" height="18" rx="2" fill="#ffffff"/>
  <rect x="391" y="30" width="18" height="18" rx="2" fill="#ffffff"/>
  <rect x="414" y="30" width="18" height="18" rx="2" fill="#ffffff"/>
  <rect x="437" y="30" width="18" height="18" rx="2" fill="#ffffff"/>
  <rect x="460" y="30" width="18" height="18" rx="2" fill="#ffffff"/>
  <rect x="483" y="30" width="18" height="18" rx="2" fill="#ffffff"/>
  <rect x="391" y="53" width="18" height="18" rx="2" fill="#ffffff"/>
  <rect x="391" y="76" width="18" height="18" rx="2" fill="#ffffff"/>
  <rect x="391" y="99" width="18" height="18" rx="2" fill="#ffffff"/>
  <rect x="414" y="99" width="18" height="18" rx="2" fill="#ffffff"/>
  <rect x="437" y="99" width="18" height="18" rx="2" fill="#ffffff"/>
  <rect x="460" y="99" width="18" height="18" rx="2" fill="#ffffff"/>
  <rect x="391" y="122" width="18" height="18" rx="2" fill="#ffffff"/>
  <rect x="391" y="145" width="18" height="18" rx="2" fill="#ffffff"/>
  <rect x="391" y="168" width="18" height="18" rx="2" fill="#ffffff"/>
  <rect x="414" y="168" width="18" height="18" rx="2" fill="#ffffff"/>
  <rect x="437" y="168" width="18" height="18" rx="2" fill="#ffffff"/>
  <rect x="460" y="168" width="18" height="18" rx="2" fill="#ffffff"/>
  <rect x="483" y="168" width="18" height="18" rx="2" fill="#ffffff"/>
  <rect x="528" y="30" width="18" height="18" rx="2" fill="#ffffff"/>
  <rect x="528" y="53" width="18" height="18" rx="2" fill="#ffffff"/>
  <rect x="528" y="76" width="18" height="18" rx="2" fill="#ffffff"/>
  <rect x="528" y="99" width="18" height="18" rx="2" fill="#ffffff"/>
  <rect x="528" y="122" width="18" height="18" rx="2" fill="#ffffff"/>
  <rect x="528" y="145" width="18" height="18" rx="2" fill="#ffffff"/>
  <rect x="528" y="168" width="18" height="18" rx="2" fill="#ffffff"/>
  <rect x="551" y="168" width="18" height="18" rx="2" fill="#ffffff"/>
  <rect x="574" y="168" width="18" height="18" rx="2" fill="#ffffff"/>
  <rect x="597" y="168" width="18" height="18" rx="2" fill="#ffffff"/>
  <rect x="620" y="168" width="18" height="18" rx="2" fill="#ffffff"/>
  <rect x="665" y="30" width="18" height="18" rx="2" fill="#ffffff"/>
  <rect x="757" y="30" width="18" height="18" rx="2" fill="#ffffff"/>
  <rect x="665" y="53" width="18" height="18" rx="2" fill="#ffffff"/>
  <rect x="688" y="53" width="18" height="18" rx="2" fill="#ffffff"/>
  <rect x="757" y="53" width="18" height="18" rx="2" fill="#ffffff"/>
  <rect x="665" y="76" width="18" height="18" rx="2" fill="#ffffff"/>
  <rect x="711" y="76" width="18" height="18" rx="2" fill="#ffffff"/>
  <rect x="757" y="76" width="18" height="18" rx="2" fill="#ffffff"/>
  <rect x="665" y="99" width="18" height="18" rx="2" fill="#ffffff"/>
  <rect x="734" y="99" width="18" height="18" rx="2" fill="#ffffff"/>
  <rect x="757" y="99" width="18" height="18" rx="2" fill="#ffffff"/>
  <rect x="665" y="122" width="18" height="18" rx="2" fill="#ffffff"/>
  <rect x="757" y="122" width="18" height="18" rx="2" fill="#ffffff"/>
  <rect x="665" y="145" width="18" height="18" rx="2" fill="#ffffff"/>
  <rect x="757" y="145" width="18" height="18" rx="2" fill="#ffffff"/>
  <rect x="665" y="168" width="18" height="18" rx="2" fill="#ffffff"/>
  <rect x="757" y="168" width="18" height="18" rx="2" fill="#ffffff"/>
  <rect x="3" y="229" width="18" height="18" rx="2" fill="#ffffff"/>
  <rect x="26" y="229" width="18" height="18" rx="2" fill="#ffffff"/>
  <rect x="49" y="229" width="18" height="18" rx="2" fill="#ffffff"/>
  <rect x="72" y="229" width="18" height="18" rx="2" fill="#ffffff"/>
  <rect x="-20" y="252" width="18" height="18" rx="2" fill="#ffffff"/>
  <rect x="-20" y="275" width="18" height="18" rx="2" fill="#ffffff"/>
  <rect x="3" y="298" width="18" height="18" rx="2" fill="#ffffff"/>
  <rect x="26" y="298" width="18" height="18" rx="2" fill="#ffffff"/>
  <rect x="49" y="298" width="18" height="18" rx="2" fill="#ffffff"/>
  <rect x="72" y="321" width="18" height="18" rx="2" fill="#ffffff"/>
  <rect x="72" y="344" width="18" height="18" rx="2" fill="#ffffff"/>
  <rect x="-20" y="367" width="18" height="18" rx="2" fill="#ffffff"/>
  <rect x="3" y="367" width="18" height="18" rx="2" fill="#ffffff"/>
  <rect x="26" y="367" width="18" height="18" rx="2" fill="#ffffff"/>
  <rect x="49" y="367" width="18" height="18" rx="2" fill="#ffffff"/>
  <rect x="117" y="229" width="18" height="18" rx="2" fill="#ffffff"/>
  <rect x="140" y="229" width="18" height="18" rx="2" fill="#ffffff"/>
  <rect x="163" y="229" width="18" height="18" rx="2" fill="#ffffff"/>
  <rect x="186" y="229" width="18" height="18" rx="2" fill="#ffffff"/>
  <rect x="209" y="229" width="18" height="18" rx="2" fill="#ffffff"/>
  <rect x="117" y="252" width="18" height="18" rx="2" fill="#ffffff"/>
  <rect x="117" y="275" width="18" height="18" rx="2" fill="#ffffff"/>
  <rect x="117" y="298" width="18" height="18" rx="2" fill="#ffffff"/>
  <rect x="140" y="298" width="18" height="18" rx="2" fill="#ffffff"/>
  <rect x="163" y="298" width="18" height="18" rx="2" fill="#ffffff"/>
  <rect x="186" y="298" width="18" height="18" rx="2" fill="#ffffff"/>
  <rect x="117" y="321" width="18" height="18" rx="2" fill="#ffffff"/>
  <rect x="117" y="344" width="18" height="18" rx="2" fill="#ffffff"/>
  <rect x="117" y="367" width="18" height="18" rx="2" fill="#ffffff"/>
  <rect x="140" y="367" width="18" height="18" rx="2" fill="#ffffff"/>
  <rect x="163" y="367" width="18" height="18" rx="2" fill="#ffffff"/>
  <rect x="186" y="367" width="18" height="18" rx="2" fill="#ffffff"/>
  <rect x="209" y="367" width="18" height="18" rx="2" fill="#ffffff"/>
  <rect x="277" y="229" width="18" height="18" rx="2" fill="#ffffff"/>
  <rect x="300" y="229" width="18" height="18" rx="2" fill="#ffffff"/>
  <rect x="323" y="229" width="18" height="18" rx="2" fill="#ffffff"/>
  <rect x="346" y="229" width="18" height="18" rx="2" fill="#ffffff"/>
  <rect x="254" y="252" width="18" height="18" rx="2" fill="#ffffff"/>
  <rect x="254" y="275" width="18" height="18" rx="2" fill="#ffffff"/>
  <rect x="254" y="298" width="18" height="18" rx="2" fill="#ffffff"/>
  <rect x="254" y="321" width="18" height="18" rx="2" fill="#ffffff"/>
  <rect x="254" y="344" width="18" height="18" rx="2" fill="#ffffff"/>
  <rect x="277" y="367" width="18" height="18" rx="2" fill="#ffffff"/>
  <rect x="300" y="367" width="18" height="18" rx="2" fill="#ffffff"/>
  <rect x="323" y="367" width="18" height="18" rx="2" fill="#ffffff"/>
  <rect x="346" y="367" width="18" height="18" rx="2" fill="#ffffff"/>
  <rect x="414" y="229" width="18" height="18" rx="2" fill="#ffffff"/>
  <rect x="437" y="229" width="18" height="18" rx="2" fill="#ffffff"/>
  <rect x="460" y="229" width="18" height="18" rx="2" fill="#ffffff"/>
  <rect x="391" y="252" width="18" height="18" rx="2" fill="#ffffff"/>
  <rect x="483" y="252" width="18" height="18" rx="2" fill="#ffffff"/>
  <rect x="391" y="275" width="18" height="18" rx="2" fill="#ffffff"/>
  <rect x="483" y="275" width="18" height="18" rx="2" fill="#ffffff"/>
  <rect x="391" y="298" width="18" height="18" rx="2" fill="#ffffff"/>
  <rect x="483" y="298" width="18" height="18" rx="2" fill="#ffffff"/>
  <rect x="391" y="321" width="18" height="18" rx="2" fill="#ffffff"/>
  <rect x="483" y="321" width="18" height="18" rx="2" fill="#ffffff"/>
  <rect x="391" y="344" width="18" height="18" rx="2" fill="#ffffff"/>
  <rect x="483" y="344" width="18" height="18" rx="2" fill="#ffffff"/>
  <rect x="414" y="367" width="18" height="18" rx="2" fill="#ffffff"/>
  <rect x="437" y="367" width="18" height="18" rx="2" fill="#ffffff"/>
  <rect x="460" y="367" width="18" height="18" rx="2" fill="#ffffff"/>
  <rect x="528" y="229" width="18" height="18" rx="2" fill="#ffffff"/>
  <rect x="620" y="229" width="18" height="18" rx="2" fill="#ffffff"/>
  <rect x="528" y="252" width="18" height="18" rx="2" fill="#ffffff"/>
  <rect x="551" y="252" width="18" height="18" rx="2" fill="#ffffff"/>
  <rect x="620" y="252" width="18" height="18" rx="2" fill="#ffffff"/>
  <rect x="528" y="275" width="18" height="18" rx="2" fill="#ffffff"/>
  <rect x="574" y="275" width="18" height="18" rx="2" fill="#ffffff"/>
  <rect x="620" y="275" width="18" height="18" rx="2" fill="#ffffff"/>
  <rect x="528" y="298" width="18" height="18" rx="2" fill="#ffffff"/>
  <rect x="597" y="298" width="18" height="18" rx="2" fill="#ffffff"/>
  <rect x="620" y="298" width="18" height="18" rx="2" fill="#ffffff"/>
  <rect x="528" y="321" width="18" height="18" rx="2" fill="#ffffff"/>
  <rect x="620" y="321" width="18" height="18" rx="2" fill="#ffffff"/>
  <rect x="528" y="344" width="18" height="18" rx="2" fill="#ffffff"/>
  <rect x="620" y="344" width="18" height="18" rx="2" fill="#ffffff"/>
  <rect x="528" y="367" width="18" height="18" rx="2" fill="#ffffff"/>
  <rect x="620" y="367" width="18" height="18" rx="2" fill="#ffffff"/>
  <rect x="665" y="229" width="18" height="18" rx="2" fill="#ffffff"/>
  <rect x="688" y="229" width="18" height="18" rx="2" fill="#ffffff"/>
  <rect x="711" y="229" width="18" height="18" rx="2" fill="#ffffff"/>
  <rect x="734" y="229" width="18" height="18" rx="2" fill="#ffffff"/>
  <rect x="665" y="252" width="18" height="18" rx="2" fill="#ffffff"/>
  <rect x="757" y="252" width="18" height="18" rx="2" fill="#ffffff"/>
  <rect x="665" y="275" width="18" height="18" rx="2" fill="#ffffff"/>
  <rect x="757" y="275" width="18" height="18" rx="2" fill="#ffffff"/>
  <rect x="665" y="298" width="18" height="18" rx="2" fill="#ffffff"/>
  <rect x="757" y="298" width="18" height="18" rx="2" fill="#ffffff"/>
  <rect x="665" y="321" width="18" height="18" rx="2" fill="#ffffff"/>
  <rect x="757" y="321" width="18" height="18" rx="2" fill="#ffffff"/>
  <rect x="665" y="344" width="18" height="18" rx="2" fill="#ffffff"/>
  <rect x="757" y="344" width="18" height="18" rx="2" fill="#ffffff"/>
  <rect x="665" y="367" width="18" height="18" rx="2" fill="#ffffff"/>
  <rect x="688" y="367" width="18" height="18" rx="2" fill="#ffffff"/>
  <rect x="711" y="367" width="18" height="18" rx="2" fill="#ffffff"/>
  <rect x="734" y="367" width="18" height="18" rx="2" fill="#ffffff"/>
  <rect x="48" y="428" width="18" height="18" rx="2" fill="#ffffff"/>
  <rect x="71" y="428" width="18" height="18" rx="2" fill="#ffffff"/>
  <rect x="94" y="428" width="18" height="18" rx="2" fill="#ffffff"/>
  <rect x="117" y="428" width="18" height="18" rx="2" fill="#ffffff"/>
  <rect x="48" y="451" width="18" height="18" rx="2" fill="#ffffff"/>
  <rect x="140" y="451" width="18" height="18" rx="2" fill="#ffffff"/>
  <rect x="48" y="474" width="18" height="18" rx="2" fill="#ffffff"/>
  <rect x="140" y="474" width="18" height="18" rx="2" fill="#ffffff"/>
  <rect x="48" y="497" width="18" height="18" rx="2" fill="#ffffff"/>
  <rect x="71" y="497" width="18" height="18" rx="2" fill="#ffffff"/>
  <rect x="94" y="497" width="18" height="18" rx="2" fill="#ffffff"/>
  <rect x="117" y="497" width="18" height="18" rx="2" fill="#ffffff"/>
  <rect x="48" y="520" width="18" height="18" rx="2" fill="#ffffff"/>
  <rect x="140" y="520" width="18" height="18" rx="2" fill="#ffffff"/>
  <rect x="48" y="543" width="18" height="18" rx="2" fill="#ffffff"/>
  <rect x="140" y="543" width="18" height="18" rx="2" fill="#ffffff"/>
  <rect x="48" y="566" width="18" height="18" rx="2" fill="#ffffff"/>
  <rect x="71" y="566" width="18" height="18" rx="2" fill="#ffffff"/>
  <rect x="94" y="566" width="18" height="18" rx="2" fill="#ffffff"/>
  <rect x="117" y="566" width="18" height="18" rx="2" fill="#ffffff"/>
  <rect x="185" y="428" width="18" height="18" rx="2" fill="#ffffff"/>
  <rect x="208" y="428" width="18" height="18" rx="2" fill="#ffffff"/>
  <rect x="231" y="428" width="18" height="18" rx="2" fill="#ffffff"/>
  <rect x="254" y="428" width="18" height="18" rx="2" fill="#ffffff"/>
  <rect x="185" y="451" width="18" height="18" rx="2" fill="#ffffff"/>
  <rect x="277" y="451" width="18" height="18" rx="2" fill="#ffffff"/>
  <rect x="185" y="474" width="18" height="18" rx="2" fill="#ffffff"/>
  <rect x="277" y="474" width="18" height="18" rx="2" fill="#ffffff"/>
  <rect x="185" y="497" width="18" height="18" rx="2" fill="#ffffff"/>
  <rect x="208" y="497" width="18" height="18" rx="2" fill="#ffffff"/>
  <rect x="231" y="497" width="18" height="18" rx="2" fill="#ffffff"/>
  <rect x="254" y="497" width="18" height="18" rx="2" fill="#ffffff"/>
  <rect x="185" y="520" width="18" height="18" rx="2" fill="#ffffff"/>
  <rect x="231" y="520" width="18" height="18" rx="2" fill="#ffffff"/>
  <rect x="185" y="543" width="18" height="18" rx="2" fill="#ffffff"/>
  <rect x="254" y="543" width="18" height="18" rx="2" fill="#ffffff"/>
  <rect x="185" y="566" width="18" height="18" rx="2" fill="#ffffff"/>
  <rect x="277" y="566" width="18" height="18" rx="2" fill="#ffffff"/>
  <rect x="345" y="428" width="18" height="18" rx="2" fill="#ffffff"/>
  <rect x="368" y="428" width="18" height="18" rx="2" fill="#ffffff"/>
  <rect x="391" y="428" width="18" height="18" rx="2" fill="#ffffff"/>
  <rect x="322" y="451" width="18" height="18" rx="2" fill="#ffffff"/>
  <rect x="414" y="451" width="18" height="18" rx="2" fill="#ffffff"/>
  <rect x="322" y="474" width="18" height="18" rx="2" fill="#ffffff"/>
  <rect x="414" y="474" width="18" height="18" rx="2" fill="#ffffff"/>
  <rect x="322" y="497" width="18" height="18" rx="2" fill="#ffffff"/>
  <rect x="345" y="497" width="18" height="18" rx="2" fill="#ffffff"/>
  <rect x="368" y="497" width="18" height="18" rx="2" fill="#ffffff"/>
  <rect x="391" y="497" width="18" height="18" rx="2" fill="#ffffff"/>
  <rect x="414" y="497" width="18" height="18" rx="2" fill="#ffffff"/>
  <rect x="322" y="520" width="18" height="18" rx="2" fill="#ffffff"/>
  <rect x="414" y="520" width="18" height="18" rx="2" fill="#ffffff"/>
  <rect x="322" y="543" width="18" height="18" rx="2" fill="#ffffff"/>
  <rect x="414" y="543" width="18" height="18" rx="2" fill="#ffffff"/>
  <rect x="322" y="566" width="18" height="18" rx="2" fill="#ffffff"/>
  <rect x="414" y="566" width="18" height="18" rx="2" fill="#ffffff"/>
  <rect x="459" y="428" width="18" height="18" rx="2" fill="#ffffff"/>
  <rect x="482" y="428" width="18" height="18" rx="2" fill="#ffffff"/>
  <rect x="505" y="428" width="18" height="18" rx="2" fill="#ffffff"/>
  <rect x="528" y="428" width="18" height="18" rx="2" fill="#ffffff"/>
  <rect x="551" y="428" width="18" height="18" rx="2" fill="#ffffff"/>
  <rect x="505" y="451" width="18" height="18" rx="2" fill="#ffffff"/>
  <rect x="505" y="474" width="18" height="18" rx="2" fill="#ffffff"/>
  <rect x="505" y="497" width="18" height="18" rx="2" fill="#ffffff"/>
  <rect x="505" y="520" width="18" height="18" rx="2" fill="#ffffff"/>
  <rect x="505" y="543" width="18" height="18" rx="2" fill="#ffffff"/>
  <rect x="459" y="566" width="18" height="18" rx="2" fill="#ffffff"/>
  <rect x="482" y="566" width="18" height="18" rx="2" fill="#ffffff"/>
  <rect x="505" y="566" width="18" height="18" rx="2" fill="#ffffff"/>
  <rect x="528" y="566" width="18" height="18" rx="2" fill="#ffffff"/>
  <rect x="551" y="566" width="18" height="18" rx="2" fill="#ffffff"/>
  <rect x="596" y="428" width="18" height="18" rx="2" fill="#ffffff"/>
  <rect x="688" y="428" width="18" height="18" rx="2" fill="#ffffff"/>
  <rect x="596" y="451" width="18" height="18" rx="2" fill="#ffffff"/>
  <rect x="619" y="451" width="18" height="18" rx="2" fill="#ffffff"/>
  <rect x="688" y="451" width="18" height="18" rx="2" fill="#ffffff"/>
  <rect x="596" y="474" width="18" height="18" rx="2" fill="#ffffff"/>
  <rect x="642" y="474" width="18" height="18" rx="2" fill="#ffffff"/>
  <rect x="688" y="474" width="18" height="18" rx="2" fill="#ffffff"/>
  <rect x="596" y="497" width="18" height="18" rx="2" fill="#ffffff"/>
  <rect x="665" y="497" width="18" height="18" rx="2" fill="#ffffff"/>
  <rect x="688" y="497" width="18" height="18" rx="2" fill="#ffffff"/>
  <rect x="596" y="520" width="18" height="18" rx="2" fill="#ffffff"/>
  <rect x="688" y="520" width="18" height="18" rx="2" fill="#ffffff"/>
  <rect x="596" y="543" width="18" height="18" rx="2" fill="#ffffff"/>
  <rect x="688" y="543" width="18" height="18" rx="2" fill="#ffffff"/>
  <rect x="596" y="566" width="18" height="18" rx="2" fill="#ffffff"/>
  <rect x="688" y="566" width="18" height="18" rx="2" fill="#ffffff"/>
</svg>